PathFileType	4	(X/Y/Z)	/Users/itak/Documents/Research/Walk-IL/dataset/trc/00285_00010.trc
DataRate	CameraRate	NumFrames	NumMarkers	Units	OrigDataRate	OrigDataStartFrame	OrigNumFrames
100.000000	100.000000	4	54	mm	100.000000	0	604
Frame#	Time	RPSI			LPSI			L3			STRN			T10			C7			CLAV			RBAK			LBAK			LSHO			LUPA			LAEL			LAOL			LWTS			LWPS			LFRA			LIFD			LHPS			LHTS			RSHO			RUPA			RAEL			RAOL			RWTS			RWPS			RFRA			RHTS			RHPS			RBHD			LFHD			RFHD			LBHD			LHIP			RASI			LASI			LKNE			LTHI			LANK			LTIP			LTOE			LMT1			LMT5			LHEE			RKNE			RTHI			RANK			RTIP			RTOE			RMT1			RMT5			RHEE			RIFD			RHIP			*53			
		X1	Y1	Z1	X2	Y2	Z2	X3	Y3	Z3	X4	Y4	Z4	X5	Y5	Z5	X6	Y6	Z6	X7	Y7	Z7	X8	Y8	Z8	X9	Y9	Z9	X10	Y10	Z10	X11	Y11	Z11	X12	Y12	Z12	X13	Y13	Z13	X14	Y14	Z14	X15	Y15	Z15	X16	Y16	Z16	X17	Y17	Z17	X18	Y18	Z18	X19	Y19	Z19	X20	Y20	Z20	X21	Y21	Z21	X22	Y22	Z22	X23	Y23	Z23	X24	Y24	Z24	X25	Y25	Z25	X26	Y26	Z26	X27	Y27	Z27	X28	Y28	Z28	X29	Y29	Z29	X30	Y30	Z30	X31	Y31	Z31	X32	Y32	Z32	X33	Y33	Z33	X34	Y34	Z34	X35	Y35	Z35	X36	Y36	Z36	X37	Y37	Z37	X38	Y38	Z38	X39	Y39	Z39	X40	Y40	Z40	X41	Y41	Z41	X42	Y42	Z42	X43	Y43	Z43	X44	Y44	Z44	X45	Y45	Z45	X46	Y46	Z46	X47	Y47	Z47	X48	Y48	Z48	X49	Y49	Z49	X50	Y50	Z50	X51	Y51	Z51	X52	Y52	Z52	X53	Y53	Z53	X54	Y54	Z54	

1	0	-39.9956169128418	1005.250183105469	1284.590698242188	-45.01385116577148	986.2745971679688	1110.058959960938	-17.16396331787109	1070.080322265625	1191.36865234375	249.3491516113281	1224.41650390625	1174.893676757812	-21.57783889770508	1189.64697265625	1189.431518554688	48.45513534545898	1428.311279296875	1171.810424804688	195.3574829101562	1329.56298828125	1173.712524414062	-13.6107063293457	1297.272094726562	1251.967041015625	24.49721908569336	1395.692993164062	1067.904296875	114.7430801391602	1393.2265625	1014.340637207031	69.7513427734375	1281.768798828125	940.96044921875	55.60799407958984	1079.778076171875	922.8448486328125	-9.741349220275879	1070.7197265625	979.6254272460938	145.7365875244141	868.0542602539062	972.6949462890625	113.3389892578125	853.2064819335938	909.899169921875	72.66899871826172	978.6130981445312	914.7684936523438	165.2970733642578	681.9010009765625	974.0370483398438	124.332160949707	765.4937744140625	913.8477172851562	177.6957855224609	772.0398559570312	953.3165893554688	122.6600341796875	1396.543579101562	1327.95556640625	115.5958023071289	1338.443237304688	1395.6416015625	116.0808868408203	1069.495971679688	1449.19091796875	65.74766540527344	1061.471557617188	1368.644653320312	209.2361602783203	846.8294067382812	1376.213500976562	180.6036987304688	840.1077270507812	1455.435180664062	143.8107147216797	1002.124694824219	1455.855102539062	238.1882019042969	728.4457397460938	1385.265502929688	201.5863647460938	728.5377807617188	1445.945678710938	84.38391876220703	1580.720581054688	1242.736328125	240.595458984375	1615.077758789062	1103.2392578125	250.8566284179688	1616.548217773438	1194.951416015625	69.17771148681641	1567.8798828125	1097.987060546875	19.19262313842773	935.4312744140625	1015.79248046875	180.4447174072266	949.5074462890625	1312.588500976562	159.4973449707031	942.5307006835938	1062.5087890625	202.885498046875	488.0458984375	1031.845947265625	153.3885955810547	623.7184448242188	1015.731201171875	-53.14884948730469	113.0374450683594	1057.729614257812	75.97183227539062	292.2637634277344	1034.250610351562	129.225830078125	34.64093780517578	1111.984375	62.65660095214844	41.38846588134766	1152.570922851562	56.45249557495117	59.36663055419922	1044.174438476562	-98.47173309326172	124.4313735961914	1115.93310546875	68.79643249511719	476.3344421386719	1340.401733398438	110.1390533447266	737.859619140625	1378.257568359375	-63.76826477050781	44.09112930297852	1305.654174804688	59.05307769775391	350.8213806152344	1323.320434570312	128.4017791748047	43.93209075927734	1237.653930664062	69.41373443603516	44.9522819519043	1202.864501953125	41.44113159179688	34.65825271606445	1317.68505859375	-119.4667892456055	43.01037979125977	1258.064331054688	205.4171295166016	661.1050415039062	1370.287109375	60.24105072021484	952.9509887695312	1386.625854492188	nan	nan	nan	
2	0.01	-38.75274658203125	1004.848571777344	1284.39208984375	-43.94069290161133	985.6575927734375	1110.05126953125	-15.94247150421143	1069.764282226562	1191.452270507812	251.0415496826172	1223.81982421875	1174.290771484375	-19.8620433807373	1189.703491210938	1189.629150390625	50.681396484375	1428.161376953125	1171.840576171875	197.3496551513672	1329.058349609375	1173.255249023438	-11.47079467773438	1297.370361328125	1252.13232421875	26.31571197509766	1395.657348632812	1068.001220703125	116.4073791503906	1392.982788085938	1014.107116699219	70.77021789550781	1281.705322265625	940.8714599609375	55.77511978149414	1079.770263671875	922.8778076171875	-9.480597496032715	1070.788452148438	979.8463134765625	146.1952362060547	868.2637939453125	972.6105346679688	113.60400390625	853.2681884765625	909.9456176757812	72.77855682373047	978.6735229492188	914.8120727539062	165.9944458007812	682.1661987304688	974.112548828125	124.7183074951172	765.5936279296875	913.9714965820312	178.1962280273438	772.3045654296875	953.2979736328125	125.3641204833984	1396.18603515625	1327.677124023438	118.6613006591797	1338.171508789062	1395.51416015625	118.9428634643555	1069.057373046875	1448.8974609375	68.26224517822266	1061.196655273438	1368.64794921875	213.1817932128906	847.272216796875	1374.652954101562	184.7725372314453	839.91015625	1453.854125976562	147.0027923583984	1001.815124511719	1455.35791015625	242.9091186523438	728.8995971679688	1383.0390625	206.3157348632812	728.619384765625	1443.797973632812	86.95194244384766	1580.33251953125	1242.587158203125	242.6935424804688	1614.568725585938	1102.55224609375	253.2312622070312	1616.14013671875	1194.24951171875	71.22621917724609	1567.38720703125	1097.910888671875	20.56051063537598	934.9520874023438	1015.721618652344	181.8566284179688	949.3226928710938	1312.5	160.8797760009766	942.289794921875	1062.35107421875	208.7050628662109	489.3792724609375	1030.852416992188	157.5745697021484	624.5304565429688	1015.041870117188	-49.2120475769043	116.378532409668	1057.43798828125	81.52259826660156	294.1314086914062	1033.798095703125	131.8470611572266	35.11817932128906	1112.709228515625	65.17476654052734	42.85990142822266	1153.075439453125	59.61990356445312	61.08544921875	1044.6533203125	-94.35765075683594	128.103515625	1115.572143554688	69.70033264160156	476.145263671875	1340.442016601562	111.6020355224609	737.4386596679688	1377.990600585938	-63.73392105102539	44.11837387084961	1305.609252929688	59.72681045532227	350.5440063476562	1323.245483398438	128.4291839599609	43.90431213378906	1237.70068359375	69.43387603759766	44.97062683105469	1202.897338867188	41.45423889160156	34.64673614501953	1317.684936523438	-119.4645080566406	43.02984619140625	1258.033447265625	210.2237243652344	661.409423828125	1367.91357421875	61.88819885253906	952.6814575195312	1386.357299804688	nan	nan	nan	
3	0.02	-37.11460876464844	1004.351501464844	1284.134887695312	-42.44189453125	984.9149169921875	1109.984741210938	-14.35113430023193	1069.36474609375	1191.540649414062	253.1876220703125	1223.070556640625	1173.511108398438	-17.64288711547852	1189.748779296875	1189.853515625	53.51804351806641	1427.974609375	1171.8330078125	199.8758544921875	1328.42578125	1172.6435546875	-8.761811256408691	1297.497680664062	1252.337280273438	28.62516403198242	1395.588134765625	1068.090698242188	118.5226440429688	1392.666748046875	1013.780822753906	72.06774139404297	1281.610595703125	940.735595703125	55.97984313964844	1079.7509765625	922.9000854492188	-9.112921714782715	1070.906127929688	980.1140747070312	146.6995391845703	868.482666015625	972.490234375	113.874397277832	853.319580078125	909.9901123046875	72.89781188964844	978.7307739257812	914.8521118164062	166.7892913818359	682.4518432617188	974.1936645507812	125.128776550293	765.6815185546875	914.10986328125	178.7743072509766	772.5824584960938	953.2330932617188	128.8074188232422	1395.754272460938	1327.311767578125	122.5229644775391	1337.819091796875	1395.302856445312	122.6077575683594	1068.509155273438	1448.519287109375	71.51268005371094	1060.79638671875	1368.593505859375	218.2411956787109	847.929931640625	1372.640014648438	190.1104125976562	839.688232421875	1451.811279296875	151.0882873535156	1001.419311523438	1454.6884765625	248.9924468994141	729.6181640625	1380.143310546875	212.4152374267578	728.7560424804688	1440.974609375	90.21307373046875	1579.851684570312	1242.373657226562	245.3580322265625	1613.934936523438	1101.65771484375	256.2603759765625	1615.61962890625	1193.331298828125	73.83896636962891	1566.786865234375	1097.78076171875	22.36141014099121	934.3936157226562	1015.585388183594	183.6926422119141	949.06884765625	1312.369140625	162.6731262207031	941.984130859375	1062.14599609375	215.8871917724609	491.06201171875	1029.57373046875	162.7248229980469	625.5399169921875	1014.12890625	-43.75950622558594	120.0175552368164	1057.1396484375	88.60881805419922	296.3073120117188	1033.21630859375	135.9993591308594	35.92925643920898	1113.776245117188	69.13800811767578	44.83444976806641	1153.81396484375	64.33992004394531	63.10772705078125	1045.313720703125	-88.782958984375	132.1345977783203	1115.133544921875	70.84330749511719	475.9022216796875	1340.48779296875	113.3740081787109	736.9585571289062	1377.708984375	-63.6893310546875	44.15924072265625	1305.543701171875	60.56129455566406	350.2000427246094	1323.140258789062	128.4664459228516	43.87107467651367	1237.753662109375	69.46445465087891	44.99538421630859	1202.933227539062	41.47519302368164	34.63733291625977	1317.679443359375	-119.474739074707	43.06047439575195	1257.977294921875	216.5126342773438	661.9354858398438	1364.761596679688	63.91361618041992	952.328125	1386.0263671875	nan	nan	nan	
4	0.03	-35.10813903808594	1003.785705566406	1283.81689453125	-40.52309036254883	984.1038208007812	1109.83251953125	-12.41652679443359	1068.895874023438	1191.608276367188	255.7155609130859	1222.201049804688	1172.5751953125	-14.98768901824951	1189.779052734375	1190.079711914062	56.86630630493164	1427.758666992188	1171.76708984375	202.8453521728516	1327.69287109375	1171.886474609375	-5.58853006362915	1297.6484375	1252.56689453125	31.34683609008789	1395.47802734375	1068.151733398438	121.0148620605469	1392.287475585938	1013.359130859375	73.60096740722656	1281.48291015625	940.5465698242188	56.21852111816406	1079.716918945312	922.9010620117188	-8.63321590423584	1071.08154296875	980.4130249023438	147.1987609863281	868.679443359375	972.3313598632812	114.1104125976562	853.3446044921875	910.0230102539062	73.01535797119141	978.7734985351562	914.8798217773438	167.5939178466797	682.7178344726562	974.2662963867188	125.5051574707031	765.7362670898438	914.2468872070312	179.3690948486328	772.8322143554688	953.1080322265625	132.8677062988281	1395.271606445312	1326.863403320312	127.0240020751953	1337.396118164062	1394.991455078125	126.9544219970703	1067.874755859375	1448.062866210938	75.40469360351562	1060.264038085938	1368.458618164062	224.2508392333984	848.8113403320312	1370.213623046875	196.4542694091797	839.4694213867188	1449.357055664062	155.9328460693359	1000.945251464844	1453.846923828125	256.2553405761719	730.6355590820312	1376.636840820312	219.7208557128906	728.9698486328125	1437.529418945312	94.05293273925781	1579.300659179688	1242.088623046875	248.4972076416016	1613.203002929688	1100.57421875	259.8422241210938	1615.002563476562	1192.213623046875	76.92856597900391	1566.11376953125	1097.583374023438	24.56108474731445	933.8037109375	1015.366088867188	185.9090118408203	948.7478637695312	1312.193603515625	164.8410186767578	941.6265258789062	1061.898193359375	224.0747528076172	493.0313110351562	1028.047973632812	168.5826873779297	626.7035522460938	1013.008605957031	-36.74302673339844	123.5126800537109	1056.8720703125	97.00016784667969	298.610595703125	1032.520629882812	141.9333038330078	37.14086532592773	1115.194091796875	74.80050659179688	47.25037002563477	1154.798461914062	70.79831695556641	65.26245880126953	1046.154663085938	-81.74364471435547	136.0564880371094	1114.643432617188	72.17243194580078	475.6101379394531	1340.522094726562	115.3784561157227	736.447265625	1377.42529296875	-63.63557815551758	44.2151985168457	1305.456176757812	61.52185440063477	349.8087768554688	1323.003173828125	128.5131378173828	43.83370971679688	1237.807373046875	69.508544921875	45.02568054199219	1202.962036132812	41.50527191162109	34.63352584838867	1317.666015625	-119.5042724609375	43.10482788085938	1257.889526367188	224.137939453125	662.724609375	1360.879272460938	66.23194885253906	951.90576171875	1385.65185546875	nan	nan	nan	
